<?xml version="1.0" encoding="utf-8"?>
<!-- Generator: Adobe Illustrator 25.4.1, SVG Export Plug-In . SVG Version: 6.00 Build 0)  -->
<svg version="1.1" id="Layer_1" xmlns="http://www.w3.org/2000/svg" xmlns:xlink="http://www.w3.org/1999/xlink" x="0px" y="0px"
	 viewBox="0 0 1920 1080" style="enable-background:new 0 0 1920 1080;" xml:space="preserve">
<style type="text/css">
	.st0{fill:url(#SVGID_1_);}
	.st1{opacity:0.2;}
	.st2{fill:none;stroke:#FFFFFF;stroke-width:3;stroke-miterlimit:10;}
</style>
<linearGradient id="SVGID_1_" gradientUnits="userSpaceOnUse" x1="960.9351" y1="-97.3899" x2="960.9351" y2="1225.05" gradientTransform="matrix(1 0 0 -1 0 1080)">
	<stop  offset="0.17" style="stop-color:#3D42AD"/>
	<stop  offset="0.29" style="stop-color:#3D42AD"/>
	<stop  offset="1" style="stop-color:#2A1A4A"/>
</linearGradient>
<rect x="-124.3" y="-145.1" class="st0" width="2170.5" height="1322.4"/>
<g class="st1">
	<line class="st2" x1="27.6" y1="1551.1" x2="27.6" y2="-518.8"/>
	<line class="st2" x1="87.6" y1="1551.1" x2="87.6" y2="-518.8"/>
	<line class="st2" x1="147.6" y1="1551.1" x2="147.6" y2="-518.8"/>
	<line class="st2" x1="207.6" y1="1551.1" x2="207.6" y2="-518.8"/>
	<line class="st2" x1="267.6" y1="1551.1" x2="267.6" y2="-518.8"/>
	<line class="st2" x1="327.6" y1="1551.1" x2="327.6" y2="-518.8"/>
	<line class="st2" x1="387.6" y1="1551.1" x2="387.6" y2="-518.8"/>
	<line class="st2" x1="447.6" y1="1551.1" x2="447.6" y2="-518.8"/>
	<line class="st2" x1="507.6" y1="1551.1" x2="507.6" y2="-518.8"/>
	<line class="st2" x1="567.6" y1="1551.1" x2="567.6" y2="-518.8"/>
	<line class="st2" x1="627.6" y1="1551.1" x2="627.6" y2="-518.8"/>
	<line class="st2" x1="687.6" y1="1551.1" x2="687.6" y2="-518.8"/>
	<line class="st2" x1="747.6" y1="1551.1" x2="747.6" y2="-518.8"/>
	<line class="st2" x1="807.6" y1="1551.1" x2="807.6" y2="-518.8"/>
	<line class="st2" x1="867.6" y1="1551.1" x2="867.6" y2="-518.8"/>
	<line class="st2" x1="927.6" y1="1551.1" x2="927.6" y2="-518.8"/>
	<line class="st2" x1="987.6" y1="1551.1" x2="987.6" y2="-518.8"/>
	<line class="st2" x1="1047.6" y1="1551.1" x2="1047.6" y2="-518.8"/>
	<line class="st2" x1="1107.6" y1="1551.1" x2="1107.6" y2="-518.8"/>
	<line class="st2" x1="1167.6" y1="1551.1" x2="1167.6" y2="-518.8"/>
	<line class="st2" x1="1227.6" y1="1551.1" x2="1227.6" y2="-518.8"/>
	<line class="st2" x1="1287.6" y1="1551.1" x2="1287.6" y2="-518.8"/>
	<line class="st2" x1="1347.6" y1="1551.1" x2="1347.6" y2="-518.8"/>
	<line class="st2" x1="1407.6" y1="1551.1" x2="1407.6" y2="-518.8"/>
	<line class="st2" x1="1467.6" y1="1551.1" x2="1467.6" y2="-518.8"/>
	<line class="st2" x1="1527.6" y1="1551.1" x2="1527.6" y2="-518.8"/>
	<line class="st2" x1="1587.6" y1="1551.1" x2="1587.6" y2="-518.8"/>
	<line class="st2" x1="1647.6" y1="1551.1" x2="1647.6" y2="-518.8"/>
	<line class="st2" x1="1707.6" y1="1551.1" x2="1707.6" y2="-518.8"/>
	<line class="st2" x1="1767.6" y1="1551.1" x2="1767.6" y2="-518.8"/>
	<line class="st2" x1="1827.6" y1="1551.1" x2="1827.6" y2="-518.8"/>
	<line class="st2" x1="1887.6" y1="1551.1" x2="1887.6" y2="-518.8"/>
</g>
<g class="st1">
	<path class="st2" d="M927.6,30L927.6,30z"/>
	<path class="st2" d="M927.6,90L927.6,90z"/>
	<path class="st2" d="M927.6,150L927.6,150z"/>
	<path class="st2" d="M927.6,210L927.6,210z"/>
	<path class="st2" d="M927.6,270.1L927.6,270.1z"/>
	<path class="st2" d="M927.6,330.1L927.6,330.1z"/>
	<path class="st2" d="M927.6,390.1L927.6,390.1z"/>
	<path class="st2" d="M927.6,450.1L927.6,450.1z"/>
	<path class="st2" d="M927.6,510.1L927.6,510.1z"/>
	<path class="st2" d="M927.6,570.1L927.6,570.1z"/>
	<path class="st2" d="M927.6,630.1L927.6,630.1z"/>
	<path class="st2" d="M927.6,690.1L927.6,690.1z"/>
	<path class="st2" d="M927.6,750.1L927.6,750.1z"/>
	<path class="st2" d="M927.6,810.2L927.6,810.2z"/>
	<path class="st2" d="M927.6,870.2L927.6,870.2z"/>
	<path class="st2" d="M927.6,930.2L927.6,930.2z"/>
	<path class="st2" d="M927.6,990.2L927.6,990.2z"/>
	<path class="st2" d="M1979.6,1050.2L1979.6,1050.2z"/>
</g>
<g class="st1">
	<path class="st2" d="M2011.9-0.1c0,0-471,0-1051.9,0s-1051.9,0-1051.9,0s471,0,1051.9,0S2011.9-0.1,2011.9-0.1z"/>
	<path class="st2" d="M960,59.9c-581,0-1051.9,0-1051.9,0S379,59.9,960,59.9s1051.9,0,1051.9,0S1541,59.9,960,59.9z"/>
	<path class="st2" d="M960,119.9c-581,0-1051.9,0-1051.9,0S379,119.9,960,119.9s1051.9,0,1051.9,0S1541,119.9,960,119.9z"/>
	<path class="st2" d="M960,179.9c-581,0-1051.9,0-1051.9,0S379,179.9,960,179.9s1051.9,0,1051.9,0S1541,179.9,960,179.9z"/>
	<path class="st2" d="M960,239.9c-581,0-1051.9,0-1051.9,0S379,239.9,960,239.9s1051.9,0,1051.9,0S1541,239.9,960,239.9z"/>
	<path class="st2" d="M960,300c-581,0-1051.9,0-1051.9,0S379,300,960,300s1051.9,0,1051.9,0S1541,300,960,300z"/>
	<path class="st2" d="M960,360c-581,0-1051.9,0-1051.9,0S379,360,960,360s1051.9,0,1051.9,0S1541,360,960,360z"/>
	<path class="st2" d="M960,420c-581,0-1051.9,0-1051.9,0S379,420,960,420s1051.9,0,1051.9,0S1541,420,960,420z"/>
	<path class="st2" d="M960,480c-581,0-1051.9,0-1051.9,0S379,480,960,480s1051.9,0,1051.9,0S1541,480,960,480z"/>
	<path class="st2" d="M960,540c-581,0-1051.9,0-1051.9,0S379,540,960,540s1051.9,0,1051.9,0S1541,540,960,540z"/>
	<path class="st2" d="M960,600c-581,0-1051.9,0-1051.9,0S379,600,960,600s1051.9,0,1051.9,0S1541,600,960,600z"/>
	<path class="st2" d="M960,660c-581,0-1051.9,0-1051.9,0S379,660,960,660s1051.9,0,1051.9,0S1541,660,960,660z"/>
	<path class="st2" d="M960,720c-581,0-1051.9,0-1051.9,0S379,720,960,720s1051.9,0,1051.9,0S1541,720,960,720z"/>
	<path class="st2" d="M960,780c-581,0-1051.9,0-1051.9,0S379,780,960,780s1051.9,0,1051.9,0S1541,780,960,780z"/>
	<path class="st2" d="M960,840.1c-581,0-1051.9,0-1051.9,0S379,840.1,960,840.1s1051.9,0,1051.9,0S1541,840.1,960,840.1z"/>
	<path class="st2" d="M960,900.1c-581,0-1051.9,0-1051.9,0S379,900.1,960,900.1s1051.9,0,1051.9,0S1541,900.1,960,900.1z"/>
	<path class="st2" d="M960,960.1c-581,0-1051.9,0-1051.9,0S379,960.1,960,960.1s1051.9,0,1051.9,0S1541,960.1,960,960.1z"/>
	<path class="st2" d="M960,1020.1c-581,0-1051.9,0-1051.9,0S379,1020.1,960,1020.1s1051.9,0,1051.9,0S1541,1020.1,960,1020.1z"/>
	<path class="st2" d="M2011.9,1080.1c0,0-471,0-1051.9,0s-1051.9,0-1051.9,0s471,0,1051.9,0S2011.9,1080.1,2011.9,1080.1z"/>
</g>
</svg>
